<svg width="143" height="152" viewBox="0 0 143 152" fill="none" xmlns="http://www.w3.org/2000/svg">
<path d="M143 0H0L12.6176 135.524L71.5 151.468L130.382 135.524L143 0Z" fill="#0277BD"/>
<path d="M71.4999 11.958V139.111L118.606 126.356L129.121 11.958H71.4999Z" fill="#039BE5"/>
<path d="M109.773 31.8879H71.4999V47.8319H92.1088L90.847 63.7759H71.4999V79.7199H90.0058L88.7441 97.6569L71.4999 103.237V119.978L104.726 109.615L107.671 63.7759L109.773 31.8879Z" fill="white"/>
<path d="M71.4999 31.8879V47.8319H34.0676L32.8058 31.8879H71.4999ZM52.1528 63.7759L52.994 79.7199H71.4999V63.7759H52.1528ZM53.8352 87.6919H37.0117L38.2734 109.615L71.4999 119.978V103.237L54.2558 97.6569L53.8352 87.6919Z" fill="#EEEEEE"/>
</svg>
