<svg width="144" height="152" viewBox="0 0 144 152" fill="none" xmlns="http://www.w3.org/2000/svg">
<path d="M0 151.468V0H143.375V151.468H0Z" fill="#F7DF1E"/>
<path d="M93.7434 113.378C96.4994 118.107 99.4943 122.638 105.839 122.638C111.167 122.638 113.963 119.841 113.963 115.97C113.963 111.337 111.072 109.692 105.209 106.995L101.995 105.548C92.7198 101.391 86.5507 96.1821 86.5507 85.1796C86.5507 75.0397 93.8987 67.3232 105.381 67.3232C113.557 67.3232 119.431 70.3147 123.669 78.149L113.657 84.9103C111.454 80.7534 109.073 79.1167 105.381 79.1167C101.613 79.1167 99.2275 81.6285 99.2275 84.9103C99.2275 88.9663 101.617 90.6072 107.133 93.1191L110.347 94.5664C121.279 99.4849 127.444 104.509 127.444 115.801C127.444 127.969 118.348 134.638 106.137 134.638C94.1934 134.638 87.411 128.306 83.6354 120.467L93.7434 113.378ZM47.6005 113.723C49.6157 117.535 52.6784 120.467 57.0832 120.467C61.2968 120.467 63.7222 118.709 63.7222 111.872V67.319H76.9964V114.026C76.9964 128.192 69.2183 134.638 57.8598 134.638C47.5965 134.638 40.1888 127.292 37.17 120.467L47.6005 113.723Z" fill="#000001"/>
</svg>
