<svg width="143" height="152" viewBox="0 0 143 152" fill="none" xmlns="http://www.w3.org/2000/svg">
<path d="M143 0H0L12.6176 135.524L71.5 151.468L130.382 135.524L143 0Z" fill="#E65100"/>
<path d="M71.5 11.958V139.111L118.606 126.356L129.121 11.958H71.5Z" fill="#FF6D00"/>
<path d="M71.5 79.7199V63.7759H107.671L104.726 109.615L71.5 119.978V103.237L88.7441 97.6569L90.0059 79.7199H71.5ZM108.932 47.8319L110.194 31.8879H71.5V47.8319H108.932Z" fill="white"/>
<path d="M71.5 103.237V119.978L38.2735 109.615L36.5912 87.6919H53.4147L54.2559 97.6569L71.5 103.237ZM50.8912 47.8319H71.5V31.8879H33.2265L36.1706 79.7199H71.5V63.7759H52.1529L50.8912 47.8319Z" fill="#EEEEEE"/>
</svg>
