<svg width="59" height="54" viewBox="0 0 59 54" fill="none" xmlns="http://www.w3.org/2000/svg">
<path d="M51.625 41.625C51.625 44.7323 48.8741 47.25 45.4792 47.25H13.5208C10.1271 47.25 7.375 44.7323 7.375 41.625V12.375C7.375 9.26775 10.1271 6.75 13.5208 6.75H45.4792C48.8741 6.75 51.625 9.26775 51.625 12.375V41.625Z" fill="#0288D1"/>
<path d="M20.8958 21.375H14.75V40.5H20.8958V21.375Z" fill="white"/>
<path d="M17.8045 19.125H17.7701C15.9361 19.125 14.75 17.874 14.75 16.3114C14.75 14.715 15.973 13.5 17.8401 13.5C19.7097 13.5 20.8614 14.715 20.8958 16.3114C20.8958 17.8729 19.7097 19.125 17.8045 19.125Z" fill="white"/>
<path d="M44.25 40.5H38.1042V30.2636C38.1042 27.7909 36.5984 26.1034 34.1807 26.1034C32.3357 26.1034 31.3376 27.2419 30.8533 28.3421C30.6763 28.7359 30.7292 29.8249 30.7292 30.375V40.5H24.5833V21.375H30.7292V24.318C31.6154 23.0625 33.0031 21.375 36.553 21.375C40.9509 21.375 44.2488 23.9062 44.2488 29.5583L44.25 40.5Z" fill="white"/>
</svg>
