<svg width="160" height="158" viewBox="0 0 160 158" fill="none" xmlns="http://www.w3.org/2000/svg">
<path d="M140.667 72.7458L86.3334 19.0916C84.6667 17.4458 82.3334 16.4583 80 16.4583C77.6667 16.4583 75.3334 17.4458 73.6667 19.0916L62 30.6125L75.6667 44.1083C77 43.45 78.3334 43.1208 80 43.1208C85.6667 43.1208 90 47.4 90 52.9958C90 54.6416 89.6667 55.9583 89 57.275L102.333 70.4416C103.667 69.7833 105 69.4541 106.667 69.4541C112.333 69.4541 116.667 73.7333 116.667 79.3291C116.667 84.925 112.333 89.2041 106.667 89.2041C101 89.2041 96.6667 84.925 96.6667 79.3291C96.6667 77.6833 97 76.3666 97.6667 75.05L84.3334 61.8833C84 61.8833 83.6667 62.2125 83.3334 62.2125V96.4458C87.3334 97.7625 90 101.383 90 105.662C90 111.258 85.6667 115.537 80 115.537C74.3334 115.537 70 111.258 70 105.662C70 101.383 72.6667 97.7625 76.6667 96.4458V61.8833C72.6667 60.5666 70 56.9458 70 52.6666C70 51.0208 70.3334 49.7041 71 48.3875L57.3334 34.8916L19.3334 72.7458C17.6667 74.3916 16.6667 76.6958 16.6667 79C16.6667 81.3041 17.6667 83.6083 19.3334 85.2542L73.6667 138.908C75.3334 140.554 77.6667 141.542 80 141.542C82.3334 141.542 84.6667 140.554 86.3334 138.908L140.667 85.2542C142.333 83.6083 143.333 81.3041 143.333 79C143.333 76.6958 142.333 74.3916 140.667 72.7458Z" fill="#F4511E"/>
</svg>
