<svg width="182" height="194" viewBox="0 0 182 194" fill="none" xmlns="http://www.w3.org/2000/svg">
<path d="M89.6729 100.629C85.8888 94.1263 83.1437 88.7348 79.3406 78.5821C72.91 61.4333 118.452 45.9376 99.9863 16.1626C107.99 36.7306 71.2568 49.4457 67.8443 66.5743C64.7238 82.3287 89.654 100.629 89.6729 100.629Z" fill="#F44336"/>
<path d="M90.5374 69.7996C89.8094 79.9684 98.989 85.3883 99.2545 92.8169C99.4668 98.8632 93.7679 103.903 93.7679 103.903C93.7679 103.903 104.112 101.737 107.338 92.5137C110.921 82.2722 100.384 75.2599 101.469 67.0593C102.481 59.2266 124.336 44.6564 124.336 44.6564C124.336 44.6564 92.1792 46.9278 90.5374 69.7996Z" fill="#F44336"/>
<path d="M121.652 101.264C128.302 99.6716 133.91 104.186 133.91 109.388C133.91 121.113 118.664 132.195 118.664 132.195C118.664 132.195 142.267 129.196 142.267 109.945C142.267 97.2142 130.676 94.0334 121.652 101.264Z" fill="#1565C0"/>
<path d="M110.447 110.721C110.447 110.721 117.807 105.132 119.767 103.034C101.708 107.12 60.4733 107.67 60.4733 104.121C60.4733 100.852 73.7707 97.5012 73.7707 97.5012C73.7707 97.5012 44.298 97.0485 44.298 106.316C44.298 115.976 82.8782 116.667 110.447 110.721Z" fill="#1565C0"/>
<path d="M105.92 119.516C88.8236 125.575 57.3338 123.639 66.6613 115.503C62.1189 115.503 55.3849 119.395 55.3849 123.137C55.3849 130.643 89.4416 136.439 114.649 125.449L105.92 119.516Z" fill="#1565C0"/>
<path d="M70.8511 132.32C64.6479 132.32 60.6325 136.58 60.6325 139.684C60.6325 149.348 97.6392 150.322 112.302 140.513L102.982 133.917C92.0275 139.05 64.5114 139.757 70.8511 132.32Z" fill="#1565C0"/>
<path d="M137.565 148.054C137.565 144.271 133.565 142.489 132.132 141.636C140.58 163.352 47.5134 161.667 47.5134 148.847C47.5134 145.933 54.3649 143.079 60.697 144.429L55.3128 141.038C42.6942 138.928 34.125 144.841 34.125 149.61C34.125 171.852 137.565 170.781 137.565 148.054Z" fill="#1565C0"/>
<path d="M147.875 156.025C132.155 172.575 92.293 178.605 52.2075 168.38C92.293 186.58 147.685 176.33 147.875 156.025Z" fill="#1565C0"/>
</svg>
