<svg width="143" height="158" viewBox="0 0 143 158" fill="none" xmlns="http://www.w3.org/2000/svg">
<path d="M84.0125 79C84.0125 86.6432 78.4176 92.825 71.5 92.825C64.5824 92.825 58.9875 86.6432 58.9875 79C58.9875 71.3567 64.5824 65.175 71.5 65.175C78.4176 65.175 84.0125 71.3567 84.0125 79Z" fill="#98CCFD"/>
<path d="M71.5 94.8C63.6136 94.8 57.2 87.7137 57.2 79C57.2 70.2863 63.6136 63.2 71.5 63.2C79.3865 63.2 85.8 70.2863 85.8 79C85.8 87.7137 79.3865 94.8 71.5 94.8ZM71.5 67.15C65.587 67.15 60.775 72.4667 60.775 79C60.775 85.5333 65.587 90.85 71.5 90.85C77.4131 90.85 82.225 85.5333 82.225 79C82.225 72.4667 77.4131 67.15 71.5 67.15Z" fill="#4788C7"/>
<path d="M141.213 79C141.213 67.9558 130.802 58.3336 114.429 52.1914C116.488 41.6409 116.77 32.2241 115.022 25.0114C113.563 18.9995 110.8 14.6743 106.814 12.1621C104.415 10.6532 101.673 9.8829 98.6664 9.8829C90.7764 9.8829 81.174 15.4169 71.5072 24.8574C61.8332 15.4129 52.2272 9.875 44.33 9.875C41.3199 9.875 38.5814 10.6413 36.1826 12.1541C32.1965 14.6703 29.4294 18.9995 27.9744 25.0154C26.2262 32.2281 26.5086 41.6449 28.5643 52.1914C12.1979 58.3336 1.78751 67.9598 1.78751 79C1.78751 90.0403 12.1979 99.6664 28.5678 105.805C26.5086 116.351 26.2262 125.768 27.978 132.981C29.433 139.001 32.2 143.326 36.1897 145.846C38.5886 147.355 41.3306 148.125 44.3372 148.125C44.3336 148.125 44.3407 148.125 44.3372 148.125C52.2308 148.125 61.8368 142.591 71.5036 133.143C81.1704 142.579 90.7728 148.109 98.6629 148.113C98.6664 148.113 98.6664 148.113 98.6664 148.113C101.677 148.113 104.415 147.347 106.817 145.834C110.8 143.322 113.563 138.997 115.018 132.985C116.767 125.772 116.484 116.355 114.429 105.809C130.799 99.6704 141.213 90.0442 141.213 79ZM103.275 19.0272C105.541 20.457 107.171 23.1588 108.115 27.0575C109.549 32.9667 109.266 40.9181 107.55 49.928C101.845 48.2809 95.5991 47.0287 88.9317 46.2229C84.9635 40.29 80.82 34.9457 76.6337 30.261C85.203 22.0173 93.0716 17.7868 98.6664 17.7868C100.418 17.7868 101.966 18.2056 103.275 19.0272ZM92.1778 91.9837C89.8433 96.3958 87.4445 100.484 85.0171 104.304C80.7092 104.718 76.1976 104.944 71.4964 104.944C66.7917 104.944 62.2801 104.715 57.9686 104.304C55.5412 100.484 53.1424 96.3958 50.8079 91.9837C48.5342 87.6782 46.475 83.3292 44.6196 79C46.475 74.6748 48.5342 70.3218 50.8115 66.0163C53.146 61.6042 55.5484 57.516 57.9758 53.6924C62.2837 53.2776 66.7989 53.0524 71.5 53.0524C76.2011 53.0524 80.7128 53.2776 85.0171 53.6924C87.4445 57.516 89.8433 61.6003 92.1778 66.0124C94.4551 70.3179 96.5179 74.6708 98.3733 78.9961C96.5179 83.3292 94.4551 87.6782 92.1778 91.9837ZM102.095 88.4484C103.561 92.5406 104.798 96.5538 105.816 100.437C102.277 101.456 98.4627 102.325 94.3979 103.024C95.7457 100.725 97.072 98.3866 98.3518 95.9652C99.6746 93.4688 100.908 90.9606 102.095 88.4484ZM71.5 122.383C68.8938 119.468 66.2555 116.237 63.6171 112.626C66.2054 112.761 68.8259 112.844 71.5 112.844C74.1705 112.844 76.791 112.761 79.3757 112.626C76.741 116.237 74.1062 119.472 71.5 122.383ZM48.595 103.024C44.5338 102.325 40.7193 101.456 37.18 100.437C38.1989 96.5538 39.4323 92.5445 40.898 88.4523C42.0849 90.9606 43.3183 93.4728 44.6375 95.9692C45.9173 98.3866 47.2472 100.725 48.595 103.024ZM40.898 69.5477C39.4323 65.4555 38.1989 61.4462 37.18 57.5634C40.7193 56.5443 44.5338 55.6753 48.5986 54.9761C47.2508 57.275 45.9209 59.6134 44.641 62.0308C43.3183 64.5312 42.0849 67.0394 40.898 69.5477ZM71.5036 35.6211C74.1098 38.5322 76.7445 41.7634 79.3757 45.3737C76.791 45.2394 74.1705 45.1564 71.5 45.1564C68.8295 45.1564 66.209 45.2394 63.6243 45.3737C66.2591 41.7634 68.8974 38.5322 71.5036 35.6211ZM98.3518 62.0308C97.072 59.6095 95.7457 57.271 94.3979 54.9721C98.4627 55.6713 102.277 56.5403 105.816 57.5594C104.798 61.4462 103.561 65.4555 102.095 69.5516C100.908 67.0434 99.6746 64.5312 98.3518 62.0308ZM34.8813 27.0614C35.8287 23.1549 37.4589 20.4492 39.7254 19.0153C41.0339 18.1937 42.5818 17.775 44.33 17.775C49.932 17.775 57.8006 22.0094 66.3735 30.261C62.1836 34.9496 58.0366 40.29 54.0647 46.2269C47.3974 47.0326 41.1518 48.2887 35.4461 49.9359C33.7301 40.9181 33.4477 32.9667 34.8813 27.0614ZM8.93751 79C8.93751 72.1705 16.9133 64.9143 30.3267 59.8148C31.9426 65.9966 34.0984 72.4509 36.751 79C34.0984 85.5491 31.9426 92.0034 30.3267 98.1852C16.9133 93.0857 8.93751 85.8296 8.93751 79ZM44.3336 140.225C42.5818 140.225 41.0303 139.806 39.729 138.989C37.4553 137.555 35.8251 134.849 34.8813 130.943C33.4477 125.033 33.7301 117.082 35.4461 108.072C41.1518 109.719 47.3938 110.971 54.0612 111.777C58.033 117.714 62.18 123.058 66.3735 127.747C57.8006 135.995 49.932 140.225 44.3336 140.225ZM108.112 130.943C107.164 134.841 105.538 137.543 103.271 138.973C101.966 139.794 100.415 140.213 98.6629 140.213C93.0644 140.213 85.1958 135.983 76.6266 127.743C80.8165 123.054 84.9599 117.71 88.9281 111.777C95.5955 110.971 101.837 109.715 107.543 108.072C109.263 117.082 109.545 125.033 108.112 130.943ZM112.666 98.1891C111.05 92.0073 108.895 85.5531 106.242 79C108.895 72.4469 111.05 65.9927 112.666 59.8109C126.083 64.9104 134.063 72.1705 134.063 79C134.063 85.8296 126.083 93.0897 112.666 98.1891Z" fill="#98CCFD"/>
<path d="M44.3372 150.1C41.0124 150.1 37.9736 149.247 35.2995 147.564C30.8773 144.768 27.8314 140.035 26.2477 133.49C24.5603 126.53 24.6532 117.437 26.4979 107.096C9.63105 100.409 0 90.2259 0 79C0 67.7741 9.63105 57.591 26.4979 50.8997C24.6496 40.5626 24.5603 31.4657 26.2477 24.5058C27.8314 17.9646 30.8773 13.2325 35.296 10.4399C44.305 4.75976 57.3823 8.88751 71.5036 22.2425C85.6212 8.89936 98.6879 4.77556 107.7 10.4478C112.116 13.2325 115.161 17.9607 116.749 24.5019C118.436 31.4657 118.343 40.5626 116.495 50.8997C133.365 57.5871 143 67.7741 143 79C143 90.2259 133.365 100.413 116.495 107.104C118.347 117.441 118.433 126.534 116.745 133.498C115.161 140.039 112.119 144.768 107.704 147.552C98.6843 153.232 85.6069 149.097 71.5 135.762C61.5758 145.151 52.2093 150.1 44.3372 150.1ZM44.33 11.85C41.638 11.85 39.1927 12.5294 37.0692 13.8685C33.5085 16.12 31.031 20.0423 29.7047 25.5249C28.0673 32.2676 28.2818 41.3447 30.316 51.7766L30.6521 53.4988L29.1434 54.0676C12.8915 60.1585 3.575 69.2475 3.575 79C3.575 88.7526 12.8914 97.8415 29.1398 103.936L30.6485 104.505L30.3124 106.227C28.2782 116.659 28.0637 125.736 29.7011 132.479C31.0274 137.966 33.5049 141.888 37.0728 144.139C39.1999 145.471 41.6416 146.15 44.3336 146.15H44.3372C51.5301 146.15 60.7536 141.007 70.3167 131.665L71.5 130.508L72.6833 131.665C82.2429 140.995 91.4699 146.138 98.6628 146.138C101.358 146.138 103.804 145.459 105.934 144.12C109.488 141.876 111.965 137.958 113.292 132.475C114.929 125.732 114.715 116.659 112.68 106.227L112.344 104.505L113.853 103.936C130.105 97.8455 139.425 88.7526 139.425 79C139.425 69.2435 130.105 60.1546 113.853 54.0637L112.344 53.4949L112.684 51.7727C114.718 41.3407 114.933 32.2636 113.295 25.521C111.965 20.0344 109.488 16.12 105.927 13.8764C103.8 12.5373 101.358 11.8579 98.6664 11.8579C91.4771 11.8579 82.2536 17.0008 72.6869 26.3386L71.5036 27.496L70.3203 26.3386C60.7536 16.9969 51.5265 11.85 44.33 11.85ZM44.3336 142.2C42.2708 142.2 40.4225 141.698 38.846 140.703C36.1432 138.997 34.2271 135.884 33.151 131.452C31.6924 125.42 31.8819 117.193 33.6944 107.665L34.0805 105.639L35.893 106.16C41.5808 107.799 47.7513 109.032 54.2506 109.814L55.0264 109.909L55.4947 110.6C59.3307 116.331 63.4205 121.632 67.639 126.357L68.9761 127.854L67.5425 129.236C58.8588 137.594 50.6148 142.2 44.3336 142.2ZM36.8332 110.493C35.1601 118.551 35.1101 125.413 36.608 130.429C37.6018 133.751 38.7709 136.109 40.6156 137.27C45.2416 140.189 54.247 136.334 63.7565 127.609C60.0636 123.343 56.4814 118.654 53.0888 113.642C47.3938 112.923 41.9348 111.864 36.8332 110.493ZM98.6664 142.188C92.3852 142.188 84.1412 137.586 75.4611 129.232L74.0275 127.854L75.3646 126.357C79.601 121.609 83.6836 116.312 87.4981 110.604L87.9629 109.909L88.7422 109.814C95.2451 109.028 101.426 107.799 107.107 106.16L108.923 105.639L109.306 107.665C111.118 117.2 111.308 125.424 109.845 131.452C108.769 135.88 106.857 138.989 104.165 140.687C102.577 141.687 100.729 142.188 98.6664 142.188ZM79.2435 127.609C88.753 136.326 97.7298 140.186 102.392 137.259C104.226 136.105 105.391 133.747 106.385 130.433C107.894 125.413 107.833 118.551 106.163 110.497C101.062 111.868 95.6026 112.923 89.9005 113.645C86.5293 118.638 82.9507 123.323 79.2435 127.609ZM71.5 125.195L70.2309 123.773C67.4674 120.684 64.7754 117.355 62.23 113.867L59.7275 110.442L63.7029 110.651C68.8187 110.92 74.1813 110.92 79.2935 110.651L83.2653 110.442L80.77 113.863C78.2317 117.335 75.5433 120.669 72.7727 123.765L71.5 125.195ZM67.5604 114.763C68.8438 116.41 70.1629 118.01 71.5 119.551C72.8371 118.002 74.1491 116.407 75.4361 114.763C72.8299 114.838 70.1665 114.838 67.5604 114.763ZM71.5 106.919C66.9097 106.919 62.3087 106.701 57.8185 106.271L56.9891 106.192L56.51 105.437C53.9324 101.381 51.4979 97.1858 49.2706 92.9791C47.0577 88.7881 44.9485 84.372 43.0037 79.8453L42.639 79L43.0037 78.1547C44.9485 73.628 47.0577 69.208 49.2706 65.021C51.5229 60.7629 53.8931 56.6904 56.5172 52.5587L56.9962 51.8082L57.8256 51.7292C66.7917 50.8681 76.2083 50.8681 85.1708 51.7292L86.0002 51.8082L86.4793 52.5627C89.1105 56.7102 91.4807 60.7866 93.7186 65.021C95.953 69.2475 98.0623 73.6636 99.9856 78.1587L100.347 79L99.9856 79.8453C98.0623 84.3365 95.953 88.7565 93.7186 92.983C91.4807 97.2174 89.1105 101.294 86.4793 105.441L86.0002 106.196L85.1708 106.275C80.6878 106.701 76.0903 106.919 71.5 106.919ZM58.9553 102.416C67.21 103.154 75.7936 103.154 84.034 102.416C86.4185 98.6197 88.5814 94.8711 90.637 90.9883C92.6783 87.1291 94.6124 83.1001 96.3927 79C94.6124 74.8999 92.6783 70.8709 90.637 67.0118C88.5849 63.1289 86.4185 59.3804 84.034 55.5844C75.79 54.8458 67.1921 54.8458 58.9625 55.5844C56.5851 59.3685 54.4187 63.1131 52.3523 67.0157C50.3324 70.8393 48.3948 74.8683 46.5966 79C48.3948 83.1278 50.3288 87.1568 52.3523 90.9883C54.3936 94.8395 56.6137 98.6789 58.9553 102.416ZM90.7228 105.659L92.8928 101.953C94.2263 99.6783 95.5383 97.3636 96.8074 94.9738C98.1159 92.5011 99.335 90.0166 100.508 87.536L102.317 83.7124L103.754 87.7256C105.202 91.7664 106.474 95.8626 107.532 99.8955L108.044 101.847L106.267 102.356C102.631 103.399 98.7344 104.284 94.6731 104.983L90.7228 105.659ZM101.812 93.22C101.19 94.4682 100.55 95.7204 99.8926 96.9686C99.292 98.1062 98.6772 99.224 98.0587 100.33C99.9463 99.935 101.784 99.5045 103.564 99.0305C103.028 97.095 102.442 95.1555 101.812 93.22ZM52.2701 105.659L48.3197 104.979C44.2585 104.28 40.3582 103.395 36.7331 102.352L34.9563 101.843L35.4676 99.8955C36.5186 95.8784 37.7878 91.7862 39.2428 87.7295L40.6799 83.7124L42.4889 87.5439C43.6579 90.0245 44.877 92.5051 46.1854 94.9778C47.451 97.3675 48.7666 99.6822 50.1001 101.957L52.2701 105.659ZM39.4287 99.0226C41.2019 99.4926 43.0394 99.9271 44.9235 100.322C44.305 99.2201 43.6936 98.1022 43.0931 96.9646C42.4317 95.7204 41.7989 94.4722 41.1768 93.22C40.5476 95.1634 39.9649 97.0989 39.4287 99.0226ZM111.469 100.733L110.947 98.7382C109.352 92.6236 107.218 86.2562 104.612 79.8098L104.283 79L104.612 78.1942C107.218 71.7557 109.352 65.3844 110.95 59.2658L111.472 57.2711L113.252 57.9465C127.402 63.3225 135.85 71.1948 135.85 79C135.85 86.8092 127.402 94.6776 113.249 100.057L111.469 100.733ZM108.197 79C110.45 84.6367 112.341 90.218 113.842 95.6256C125.1 91.0041 132.275 84.5774 132.275 79C132.275 73.4226 125.1 66.996 113.842 62.3745C112.341 67.7899 110.446 73.3673 108.197 79ZM31.5208 100.729L29.744 100.054C15.5977 94.6736 7.15 86.8052 7.15 79C7.15 71.1948 15.5977 63.3264 29.744 57.9465L31.5208 57.2711L32.0427 59.2658C33.6479 65.4041 35.7786 71.7755 38.3776 78.1942L38.7101 79L38.3812 79.8058C35.7786 86.2246 33.6515 92.5959 32.0463 98.7342L31.5208 100.729ZM29.1541 62.3745C17.8965 66.9999 10.725 73.4266 10.725 79C10.725 84.5735 17.8965 91.0001 29.1541 95.6256C30.6592 90.1943 32.5504 84.6169 34.7955 79C32.5504 73.3831 30.6592 67.8057 29.1541 62.3745ZM40.6763 74.2956L39.2392 70.2784C37.7878 66.2218 36.515 62.1296 35.464 58.1124L34.9528 56.1651L36.7295 55.6555C40.3618 54.6127 44.2585 53.7279 48.3197 53.0288L52.2737 52.3494L50.0929 56.0584C48.7594 58.3297 47.4474 60.6444 46.1783 63.0341C44.8698 65.5029 43.6508 67.9874 42.4817 70.468L40.6763 74.2956ZM39.4287 58.9775C39.9614 60.9011 40.5476 62.8406 41.1768 64.78C41.7989 63.5318 42.4352 62.2836 43.0931 61.0354C43.6936 59.9018 44.305 58.7839 44.9235 57.6779C43.0394 58.069 41.2019 58.5074 39.4287 58.9775ZM102.317 74.2956L100.508 70.468C99.335 67.9835 98.1159 65.5029 96.8074 63.0302C95.5419 60.6404 94.2263 58.3257 92.8928 56.0505L90.7228 52.3454L94.6696 53.0248C98.7344 53.724 102.638 54.6088 106.263 55.6555L108.04 56.1651L107.529 58.1164C106.471 62.1454 105.202 66.2415 103.75 70.2863L102.317 74.2956ZM98.0623 57.674C98.6807 58.78 99.2956 59.8978 99.8962 61.0354C100.558 62.2836 101.194 63.5318 101.816 64.784C102.445 62.8445 103.032 60.9051 103.568 58.9775C101.791 58.5035 99.9499 58.069 98.0623 57.674ZM108.912 52.3652L107.1 51.8438C101.426 50.2045 95.2487 48.9761 88.7351 48.19L87.9557 48.0952L87.491 47.4C83.6657 41.6765 79.5831 36.3756 75.3574 31.6514L74.0204 30.1543L75.454 28.7718C86.9976 17.6684 97.7727 13.2918 104.15 17.3129C106.85 19.0153 108.762 22.124 109.838 26.548C111.297 32.5796 111.107 40.8075 109.295 50.3388L108.912 52.3652ZM89.9005 44.3546C95.6098 45.0774 101.065 46.136 106.163 47.5067C108.011 39.974 108.272 33.3064 106.388 27.5671C105.309 24.2886 104.229 21.8988 102.388 20.7375C97.7477 17.8145 88.7601 21.6697 79.247 30.3913C82.94 34.6613 86.5186 39.3499 89.9005 44.3546ZM34.0841 52.3652L33.6979 50.3388C31.8818 40.8075 31.6924 32.5836 33.1546 26.5519C34.2306 22.1161 36.1432 19.0035 38.8424 17.305C45.238 13.276 56.006 17.6644 67.5496 28.7758L68.9868 30.1583L67.6462 31.6553C63.4134 36.3835 59.3307 41.6844 55.5055 47.404L55.0407 48.0992L54.2614 48.194C47.762 48.98 41.5808 50.2085 35.8966 51.8477L34.0841 52.3652ZM44.33 19.75C42.8964 19.75 41.6452 20.0779 40.6084 20.7336C38.7709 21.8909 37.8414 24.3518 36.608 27.571C34.6775 32.6073 35.0028 39.4645 36.8332 47.5067C41.9383 46.136 47.3938 45.0774 53.0959 44.3546C56.4779 39.3499 60.06 34.6652 63.7601 30.3953C56.3634 23.6092 49.3457 19.75 44.33 19.75ZM59.7347 47.5541L62.2336 44.1334C64.7719 40.6574 67.4638 37.3275 70.2309 34.2307L71.5 32.8087L72.7691 34.2307C75.5469 37.3394 78.2353 40.6692 80.7628 44.1294L83.2546 47.5501L79.2863 47.3447C74.1741 47.0801 68.8116 47.0801 63.7029 47.3447L59.7347 47.5541ZM71.5 43.1814C72.8228 43.1814 74.1348 43.2012 75.4361 43.2367C74.1598 41.5975 72.8406 40.0017 71.5036 38.4533C70.1665 39.9977 68.8509 41.5935 67.5675 43.2367C68.8688 43.2012 70.1773 43.1814 71.5 43.1814Z" fill="#4788C7"/>
</svg>
