<svg width="59" height="54" viewBox="0 0 59 54" fill="none" xmlns="http://www.w3.org/2000/svg">
<path d="M51.2194 15.165C50.7277 15.4575 50.0271 15.7275 49.7321 16.0312C49.6214 16.1325 49.56 16.245 49.5846 16.3575V17.5162L49.2158 18.6525L48.8471 19.7775L48.4414 21.015L47.6056 23.5462L46.7944 26.0437L46.1798 27.9225C46.1798 28.215 46.1675 28.5075 46.1429 28.7887C46.0569 29.8687 45.811 30.9037 45.4177 31.8713C45.1842 32.4675 44.9014 33.0413 44.5573 33.5813C44.4344 33.795 44.2869 34.0087 44.1394 34.2113C43.6477 34.92 43.0577 35.5725 42.4062 36.1463C41.9023 36.6075 41.3492 37.035 40.7469 37.395C40.7469 37.395 40.7469 37.395 40.7346 37.395C40.6362 37.4738 40.5256 37.5412 40.4027 37.5975C40.0217 37.8337 39.616 38.0363 39.1981 38.2163C38.9154 38.3513 38.6327 38.4637 38.3377 38.565C38.2762 38.5987 38.2025 38.6212 38.141 38.6437C37.4404 38.9475 36.6292 39.15 35.8179 39.2513C35.7687 39.2625 35.7319 39.2625 35.6827 39.2738C35.191 39.3525 34.7117 39.42 34.22 39.4538C33.9987 39.4762 33.7652 39.4875 33.544 39.4875L32.6712 39.4425L28.4675 39.24C28.4675 39.2288 28.4552 39.24 28.4552 39.24L26.341 39.1388C26.1812 39.1388 26.0092 39.1387 25.8494 39.1275C25.1856 39.105 24.5465 39.0375 23.9073 38.9137C23.895 38.9137 23.895 38.9137 23.895 38.9137C22.7273 38.7113 21.6087 38.3512 20.564 37.8675C19.9862 37.5975 19.4208 37.2938 18.8923 36.945C18.671 36.7987 18.4621 36.6412 18.2531 36.4725C17.6631 36.0225 17.1346 35.5387 16.6429 35.0437C16.5692 34.9762 16.5077 34.9087 16.4462 34.8412C16.3725 34.7737 16.2987 34.695 16.2373 34.6275C15.7702 34.0875 15.3769 33.5363 15.0573 32.9513C14.7623 32.4338 14.5287 31.8825 14.3444 31.275C14.2706 31.0612 14.2092 30.8587 14.16 30.6337C14.1477 30.6225 14.1354 30.6 14.1354 30.5775C14.0125 30.1163 13.9019 29.6325 13.8404 29.1488C13.7667 28.7775 13.7298 28.4062 13.7298 28.0238C13.7052 27.8775 13.7052 27.72 13.7052 27.5737L16.0529 24.255L18.3515 21.015L19.3962 19.5413L20.3427 18.2138L20.6623 17.7525V16.5938C20.6869 16.335 20.6992 16.065 20.6869 15.8175C20.6746 15.03 20.5025 14.265 20.2198 13.5337C19.9494 12.7575 19.5683 12.0263 19.175 11.3513C18.7079 10.575 18.2162 9.8775 17.8106 9.2475C17.2083 8.325 16.7904 7.57125 16.901 7.0425C17.786 6.85125 18.7202 6.75 19.6667 6.75H39.3333C44.4712 6.75 48.8962 9.675 50.7277 13.7925C50.9244 14.2313 51.0964 14.6925 51.2194 15.165Z" fill="#304FFE"/>
<path d="M51.625 18V18.3038L49.9288 19.2037L48.8471 19.7775L47.6548 20.4075L45.2702 21.6788L42.9348 22.9163L40.5502 24.1763L39.6038 24.6825C39.6038 25.2225 39.4563 25.7175 39.1858 26.1675C38.8048 26.82 38.1656 27.36 37.3544 27.8212C36.5308 28.2825 35.5229 28.6537 34.3921 28.9237C34.3921 28.9237 34.3921 28.9125 34.3798 28.9237C30.004 29.9587 24.0302 29.4862 21.1294 27.5063C20.3181 26.955 19.7527 26.28 19.5069 25.5037C19.4331 25.245 19.3963 24.9638 19.3963 24.6825V16.5938C19.4086 16.425 19.2856 16.2563 19.0644 16.0875C18.4006 15.6038 16.8396 15.1425 15.0942 14.6813C13.7298 14.3325 12.2671 13.9838 11.0379 13.6463C10.0669 13.3763 9.24335 13.1063 8.75168 12.8475C8.97293 12.4538 9.23105 12.06 9.50147 11.6888C11.2223 9.3825 13.8527 7.68375 16.9011 7.0425C17.7861 6.85125 18.7202 6.75 19.6667 6.75H32.9417C39.5423 7.8075 45.6267 10.2713 50.7277 13.7925C50.9244 14.2313 51.0965 14.6925 51.2194 15.165C51.4406 15.9075 51.5758 16.6725 51.6127 17.4712C51.625 17.64 51.625 17.82 51.625 18Z" fill="#4928F4"/>
<path d="M51.625 18V22.9613L51.3546 23.7263L50.4327 26.3475L49.474 29.0475L48.97 30.4875L48.5029 31.8263L48.0481 33.0975L47.6056 34.3575L47.3721 35.0213L47.0648 35.8988C47.0648 36.7538 47.0402 37.5075 46.9787 38.1488C46.9665 38.2163 46.9542 38.2838 46.9542 38.3513C46.8804 38.9475 46.7821 39.4538 46.6223 39.8813C46.61 39.9488 46.5854 40.0163 46.5608 40.0725C46.2412 40.8825 45.7619 41.4 45.049 41.7375C44.8769 41.8275 44.6802 41.895 44.4712 41.9625C43.8198 42.165 42.9962 42.2663 41.9883 42.3225C41.2508 42.3675 40.4027 42.3788 39.444 42.3788H38.5958L37.1331 42.3225L36.875 42.3113L34.2077 42.21L31.5035 42.1088L22.5921 41.7713L20.2812 41.6813H19.9617C19.0029 41.67 18.1794 41.6138 17.4665 41.5238C16.434 41.3775 15.635 41.13 15.0327 40.7588C14.1723 40.2525 13.6683 39.51 13.3733 38.475C13.2996 38.2275 13.2381 37.9688 13.2012 37.6875C13.0783 37.035 13.0169 36.2813 12.98 35.4375C12.98 35.2688 12.98 35.1 12.9677 34.92C12.9554 34.9088 12.9677 34.9088 12.9677 34.9088V34.2563C12.9554 33.93 12.9554 33.5925 12.9554 33.2438L13.0169 31.4325L13.0537 30.1388L13.1029 28.6313V28.4175L13.189 25.65L13.275 22.8825L13.361 20.2838L13.4348 17.73L13.4594 17.055C13.4594 16.7063 12.1687 16.5038 10.7306 16.335C9.58749 16.2 8.33375 16.0763 7.58395 15.9188C7.64541 15.66 7.70687 15.4013 7.78062 15.1538C8.00187 14.3438 8.33375 13.5788 8.75166 12.8475C8.97291 12.4538 9.23104 12.06 9.50145 11.6888C12.1565 10.62 14.9221 9.78751 17.8106 9.24751C20.3427 8.76376 22.9854 8.505 25.7142 8.505C34.7608 8.505 43.1192 11.3063 49.7321 16.0313C50.3712 16.4813 50.9981 16.965 51.6127 17.4713C51.625 17.64 51.625 17.82 51.625 18Z" fill="#6200EA"/>
<path d="M51.625 20.6663V25.7737L50.949 26.9662L49.6583 29.2725L48.97 30.4875L48.3431 31.6012L48.0727 32.085C48.0727 32.4337 48.0727 32.7712 48.0481 33.0975C48.0481 33.5813 48.0235 34.0425 47.9867 34.47C47.9375 34.9762 47.8638 35.4375 47.79 35.865C47.6056 36.7537 47.3475 37.5187 46.9787 38.1487C46.9296 38.2275 46.8804 38.3062 46.8312 38.3737C46.696 38.5762 46.5363 38.7675 46.3642 38.9475C46.1429 39.195 45.8971 39.4087 45.6144 39.5887C45.1965 39.8812 44.7048 40.1175 44.1394 40.2975C43.4387 40.5337 42.6275 40.6912 41.6688 40.7812C41.0419 40.8375 40.3535 40.8713 39.6038 40.8713L39.0875 40.8937L36.5308 41.0287H36.5185L33.8021 41.175L31.0365 41.3212L27.226 41.5237L22.5921 41.7712L21.916 41.805C21.2892 41.805 20.6992 41.7712 20.1337 41.7037C20.0723 41.6925 20.0231 41.6812 19.9617 41.6812C19.1258 41.5575 18.3637 41.355 17.6754 41.0737C16.8396 40.7362 16.1144 40.2863 15.4998 39.7463C14.959 39.2625 14.4919 38.7112 14.1108 38.0925C14.0248 37.9462 13.9387 37.8112 13.865 37.6537C13.4962 36.99 13.2013 36.2475 12.98 35.4375C12.9431 35.3025 12.9062 35.1563 12.8817 35.01C12.8079 34.7513 12.7465 34.4813 12.7096 34.2C12.5744 33.48 12.5006 32.715 12.4638 31.9163V31.905C12.4515 31.5787 12.4392 31.2638 12.4392 30.9263L11.8369 29.61L11.7508 29.4075L11.6771 29.2388L10.7552 27.225L10.6077 26.8987L9.72271 24.9525L8.73938 22.7812C8.73938 22.7812 8.73937 22.7812 8.72708 22.7812L7.73146 20.5875L7.375 19.7887V18C7.375 17.2912 7.44875 16.5937 7.58396 15.9187C7.64542 15.66 7.70687 15.4012 7.78062 15.1537C8.82542 14.6025 9.91937 14.0962 11.0379 13.6462C13.5946 12.6 16.3356 11.8237 19.175 11.3512C21.2892 11.0025 23.4894 10.8112 25.7142 10.8112C34.6994 10.8112 42.8488 13.7925 49.2158 18.6525C49.4617 18.8325 49.6952 19.0125 49.9287 19.2037C50.5065 19.665 51.0719 20.1488 51.625 20.6663Z" fill="#673AB7"/>
<path d="M51.625 24.0188V29.8013L50.9244 31.14L49.5969 33.6713L49.5846 33.705C49.5846 34.1888 49.56 34.6275 49.5231 35.0213C49.4002 36.315 49.056 37.1363 48.4906 37.6425C48.085 38.025 47.581 38.2388 46.9542 38.3513C46.9173 38.3625 46.8681 38.3625 46.8312 38.3738C46.6346 38.4075 46.4256 38.43 46.2044 38.43C45.4423 38.4975 44.545 38.4525 43.5125 38.385C43.4019 38.385 43.279 38.3738 43.156 38.3625C42.4062 38.3175 41.6073 38.2725 40.7223 38.2388C40.2429 38.2275 39.739 38.2163 39.2227 38.2163H39.1981L37.9567 38.3063H37.9444L35.1542 38.4863L31.9706 38.7113L31.5035 38.745L27.7792 38.9925L25.8494 39.1275L23.9442 39.2513C23.6123 39.2513 23.2927 39.2513 22.9731 39.24C22.9731 39.24 22.9608 39.2288 22.9608 39.24C21.5719 39.2175 20.3304 39.1388 19.2242 38.9475C18.204 38.79 17.3067 38.5425 16.5446 38.1713C15.7579 37.8225 15.1065 37.3275 14.5779 36.6975C14.074 36.0788 13.7052 35.3025 13.4717 34.3688C13.4717 34.3575 13.4717 34.3575 13.4717 34.3575C13.2996 33.6038 13.2012 32.7263 13.2012 31.7363L13.0169 31.4325L11.9229 29.6438L11.7631 29.3963L11.6771 29.2388L10.534 27.3825L9.96854 26.4488L9.25563 25.29L8.02646 23.2763L7.375 22.2188V18.0788C8.45667 17.4263 9.57521 16.8525 10.7306 16.335C12.1319 15.6825 13.5823 15.1313 15.0942 14.6813C16.7412 14.1863 18.4621 13.7925 20.2198 13.5338C22.0021 13.2638 23.8335 13.1288 25.7142 13.1288C34.0725 13.1288 41.7425 15.8625 47.6548 20.4075C47.9252 20.5988 48.1833 20.8125 48.4415 21.015C49.474 21.8588 50.4573 22.77 51.3546 23.7263C51.4529 23.8275 51.5513 23.9175 51.625 24.0188Z" fill="#8E24AA"/>
<path d="M51.625 27.7987V35.9325C51.33 35.775 50.9244 35.5837 50.4204 35.3812C50.15 35.2575 49.8427 35.1337 49.5231 35.0212C49.056 34.83 48.5521 34.65 47.9867 34.47C47.8638 34.425 47.7408 34.3912 47.6056 34.3575C47.3844 34.2787 47.1508 34.2112 46.9173 34.1437C46.1921 33.9412 45.3931 33.75 44.5573 33.5812C44.2377 33.525 43.9058 33.4687 43.574 33.4237C42.5046 33.255 41.3615 33.1537 40.1692 33.1425C40.0708 33.1312 39.9602 33.1312 39.8619 33.1312L36.7029 33.1537L32.4008 33.1762H32.3885L23.1821 33.2437C20.2567 33.2437 18.4621 33.885 17.3804 34.1437C17.3804 34.1437 17.3681 34.1437 17.3681 34.155C16.225 34.425 15.8685 34.2562 15.7702 32.4225C15.7456 31.9162 15.7333 31.2637 15.7333 30.465L15.045 29.9812L13.8404 29.1487L13.1029 28.6312L12.9554 28.53L10.915 27.1125L10.6077 26.8987L9.96854 26.4487L8.78854 25.6387L7.375 24.6487V20.8237C7.49792 20.7337 7.60854 20.655 7.73146 20.5875C9.51375 19.4625 11.419 18.5062 13.4348 17.73C15.2294 17.0325 17.1223 16.4812 19.0644 16.0875C19.5929 15.9862 20.1337 15.885 20.6869 15.8175C22.3217 15.5587 24.0056 15.435 25.7142 15.435C33.1015 15.435 39.8865 17.7862 45.2702 21.6787C46.0815 22.2637 46.8681 22.8825 47.6056 23.5462C48.6135 24.4237 49.56 25.3575 50.4327 26.3475C50.6048 26.55 50.7769 26.7525 50.949 26.9662C51.1825 27.2362 51.4037 27.5175 51.625 27.7987Z" fill="#C2185B"/>
<path d="M51.625 32.31V36C51.625 36.7313 51.5512 37.4513 51.4037 38.1488C51.1825 39.1838 50.8015 40.1738 50.2852 41.0963C50.0148 41.1525 49.7075 41.1525 49.3633 41.1075C48.589 40.9838 47.6794 40.6125 46.696 40.1288C46.6469 40.1175 46.5977 40.095 46.5608 40.0725C46.2535 39.9263 45.934 39.7688 45.6144 39.5888C44.9629 39.2625 44.2746 38.9025 43.5862 38.565C43.4387 38.4975 43.2912 38.43 43.156 38.3625C42.3694 37.9913 41.5581 37.6538 40.7469 37.395C40.7469 37.395 40.7469 37.395 40.7346 37.395C40.5625 37.3388 40.3781 37.2825 40.1937 37.2375C39.4931 37.0575 38.7802 36.945 38.0919 36.945L36.7398 36.585L30.7537 34.9988C30.7537 34.9988 30.7537 34.9988 30.7415 34.9988L27.0662 34.02H27.054L25.456 33.5925C20.8344 33.5925 17.995 35.3925 16.6183 34.7063C16.0775 34.4475 15.7579 33.795 15.6473 32.5125C15.6104 32.1525 15.5981 31.7475 15.5981 31.275L14.16 30.6338L14.0985 30.6113H14.0862L13.0537 30.1388L11.9229 29.6438L11.8369 29.61L11.6279 29.5088L9.21875 28.44L7.375 27.6188V23.76C7.58396 23.5913 7.80521 23.4338 8.02646 23.2763C8.26 23.1075 8.49354 22.95 8.72708 22.7813C8.73937 22.7813 8.73938 22.7813 8.73938 22.7813C10.1898 21.825 11.7262 20.9813 13.361 20.2838C15.2662 19.4513 17.2944 18.81 19.3962 18.3938C19.7035 18.3263 20.0231 18.2588 20.3427 18.2138C22.0881 17.91 23.8827 17.7525 25.7142 17.7525C32.1919 17.7525 38.141 19.6763 42.9348 22.9163C44.3237 23.8613 45.6144 24.9075 46.7944 26.0438C47.7654 26.9775 48.6627 27.99 49.474 29.0475C49.5354 29.1263 49.5969 29.205 49.6583 29.2725C50.1131 29.88 50.531 30.4988 50.9244 31.14C51.1825 31.5225 51.4037 31.9163 51.625 32.31Z" fill="#D81B60"/>
<path d="M51.4038 38.1487C51.1825 39.1837 50.8015 40.1737 50.2852 41.0962C50.0517 41.5125 49.7935 41.9062 49.5108 42.2887C49.3388 42.525 49.1544 42.75 48.97 42.9637C48.5275 42.8062 47.876 42.5812 47.0771 42.3337C47.0771 42.3337 47.0771 42.3337 47.0771 42.3225C46.4748 42.1312 45.7865 41.9287 45.049 41.7375C44.84 41.6812 44.631 41.625 44.4098 41.5687C43.5371 41.355 42.6275 41.1637 41.7425 41.0512C41.005 40.9387 40.2798 40.8712 39.6038 40.8712L39.0383 40.725H39.026L36.0515 39.9375L34.22 39.4537L32.1796 38.9137H32.1673L31.5035 38.745L23.4771 36.63L21.1663 36.0225L19.4454 35.6512L16.6429 35.0437L16.2988 34.965C16.2988 34.965 16.2988 34.965 16.2865 34.965L13.4717 34.3687C13.4717 34.3575 13.4717 34.3575 13.4717 34.3575L12.9677 34.2562L12.7096 34.2L10.6569 33.7612L10.4233 33.705L8.67792 32.3887L7.375 31.3875V26.7975C7.82979 26.3925 8.29688 26.01 8.78854 25.6387C8.93604 25.515 9.09583 25.4025 9.25563 25.29C9.40313 25.1775 9.56292 25.065 9.72271 24.9525C10.8413 24.1762 12.0213 23.4787 13.275 22.8825C14.8729 22.095 16.5692 21.465 18.3515 21.015C18.6956 20.9137 19.0398 20.8237 19.3963 20.7562C21.4121 20.295 23.5263 20.0587 25.7142 20.0587C31.2085 20.0587 36.3219 21.5775 40.5502 24.1762C42.6521 25.47 44.545 27.0225 46.1429 28.7887C46.9542 29.6775 47.6917 30.6112 48.3431 31.6012C48.4046 31.68 48.4538 31.7475 48.5029 31.8262C48.8963 32.4225 49.265 33.0412 49.5969 33.6712C49.9042 34.2337 50.1746 34.7962 50.4204 35.3812C50.8138 36.2812 51.1333 37.2037 51.4038 38.1487Z" fill="#F50057"/>
<path d="M49.5108 42.2888C49.3388 42.525 49.1544 42.75 48.97 42.9638C48.4292 43.5825 47.8392 44.145 47.1754 44.64C46.5977 45.0788 45.9831 45.4725 45.3317 45.81C45.0858 45.7538 44.84 45.6863 44.5819 45.5963C43.7706 45.3375 42.9225 44.91 42.1358 44.46C40.9558 43.7738 39.9356 43.0313 39.4808 42.6938C39.3088 42.5588 39.2227 42.4913 39.2227 42.4913L37.1331 42.3225L36.875 42.3L34.1708 42.0863L31.3683 41.8613L27.226 41.5238L20.6623 40.995L20.6377 40.9838L18.3269 39.96L15.9915 38.925L14.1108 38.0925L13.7052 37.9125L13.2013 37.6875L11.4558 36.9113L9.13271 35.8875L8.4075 35.5613L7.375 35.2688V30.24C7.95271 29.61 8.56729 29.0138 9.21875 28.44C9.63667 28.08 10.0792 27.72 10.534 27.3825C10.6077 27.3263 10.6815 27.27 10.7552 27.225C10.8044 27.1688 10.8658 27.135 10.915 27.1125C11.6402 26.5725 12.4023 26.0888 13.189 25.65C14.0985 25.1213 15.0573 24.6488 16.0529 24.255C17.1223 23.8163 18.2408 23.445 19.3963 23.1638C21.3998 22.6463 23.5263 22.3763 25.7142 22.3763C30.7292 22.3763 35.3631 23.7713 39.1858 26.1675C41.6319 27.6975 43.746 29.6325 45.4177 31.8713C45.9708 32.5913 46.4625 33.3563 46.9173 34.1438C47.0771 34.4363 47.2369 34.7288 47.3721 35.0213C47.5196 35.3025 47.6548 35.5838 47.79 35.865C48.0481 36.45 48.2817 37.035 48.4906 37.6425C48.884 38.7675 49.179 39.915 49.3633 41.1075C49.4248 41.5013 49.474 41.895 49.5108 42.2888Z" fill="#FF1744"/>
<path d="M47.1877 44.3475C47.1877 44.4375 47.1877 44.5387 47.1754 44.64C46.5977 45.0787 45.9831 45.4725 45.3317 45.81C45.0612 45.945 44.7908 46.08 44.5081 46.1925C44.2254 46.3162 43.9427 46.4287 43.6477 46.53C43.2298 46.3275 42.6644 46.08 42.0621 45.8437C41.214 45.495 40.2921 45.18 39.5792 45.0787C39.4071 45.045 39.2473 45.0337 39.0998 45.0337L37.084 44.7975H37.0594L34.5519 44.4937L32.0198 44.19L30.8398 44.055L21.5473 42.9525C20.945 42.9525 20.3058 42.9187 19.6421 42.84C18.8308 42.7725 17.9827 42.66 17.1346 42.5025C16.2987 42.3675 15.4506 42.1875 14.6394 41.9962C13.7912 41.8162 12.9554 41.6025 12.181 41.4C11.2837 41.1525 10.4479 40.9162 9.74729 40.7025C9.16958 40.5337 8.67792 40.3762 8.29688 40.2525C8.07562 39.7687 7.89125 39.2625 7.75604 38.745C7.49792 37.8675 7.375 36.945 7.375 36V34.1212C7.76833 33.525 8.19854 32.94 8.67792 32.3887C9.55062 31.3312 10.5462 30.3637 11.6279 29.5087C11.6648 29.4637 11.714 29.43 11.7508 29.4075L11.7631 29.3962C12.1442 29.0812 12.5375 28.8 12.9554 28.53C13.0046 28.485 13.0537 28.4512 13.1029 28.4175C13.2996 28.2825 13.5085 28.1475 13.7298 28.0237C15.4875 26.9325 17.4296 26.0775 19.5069 25.5037C21.4735 24.9637 23.5508 24.6825 25.7142 24.6825C30.004 24.6825 34.011 25.8412 37.3544 27.8212C39.825 29.2725 41.9515 31.185 43.574 33.4237C43.7706 33.6825 43.955 33.9412 44.1394 34.2112C44.9875 35.5275 45.6881 36.945 46.2044 38.43C46.2658 38.5987 46.315 38.7675 46.3642 38.9475C46.4625 39.2512 46.5485 39.5662 46.6223 39.8812C46.6469 39.96 46.6715 40.0387 46.696 40.1287C46.8681 40.8375 46.991 41.58 47.0771 42.3225C47.0771 42.3337 47.0771 42.3337 47.0771 42.3337C47.1508 42.9975 47.1877 43.6725 47.1877 44.3475Z" fill="#FF5722"/>
<path d="M44.6556 44.3475C44.6556 44.7412 44.631 45.1687 44.5819 45.5962C44.5573 45.7987 44.5327 46.0013 44.5081 46.1925C44.2254 46.3163 43.9427 46.4288 43.6477 46.53C43.0946 46.7213 42.5292 46.8787 41.9515 46.9913C41.5581 47.07 41.1525 47.1375 40.7469 47.1712H40.7346C40.3535 46.9575 39.911 46.6987 39.4562 46.4062C38.6327 45.8775 37.7723 45.2812 37.084 44.7975C37.0717 44.7862 37.0717 44.7862 37.0594 44.775C36.3342 44.2687 35.8179 43.8862 35.8179 43.8862L34.515 43.9312L32.0075 44.01L30.8398 44.055L26.1444 44.2125L22.1742 44.3475C21.916 44.3587 21.6088 44.3587 21.2277 44.3475H21.2154C20.6992 44.3362 20.0846 44.3025 19.4085 44.2463C18.6219 44.19 17.7615 44.1225 16.8888 44.0438C16.0406 43.9538 15.1802 43.8638 14.3567 43.7738C13.4471 43.6838 12.5867 43.5825 11.8492 43.4925C11.2715 43.425 10.7675 43.3687 10.3619 43.3237C10.0177 42.9637 9.71042 42.5925 9.41542 42.1875C8.97292 41.58 8.59188 40.9387 8.29688 40.2525C8.07563 39.7687 7.89125 39.2625 7.75604 38.745C8.1125 37.7437 8.57958 36.7987 9.13271 35.8875C9.57521 35.145 10.0915 34.4363 10.6569 33.7613C11.21 33.0975 11.8123 32.4788 12.4638 31.9163V31.905C12.6481 31.7363 12.8325 31.5788 13.0169 31.4325C13.361 31.14 13.7175 30.87 14.0863 30.6112H14.0985C14.1108 30.5887 14.1231 30.5888 14.1354 30.5775C14.4304 30.3638 14.7377 30.1725 15.045 29.9812C16.8642 28.845 18.9169 28.0013 21.1294 27.5063C22.5921 27.18 24.1285 27 25.7142 27C28.8363 27 31.7862 27.6862 34.3798 28.9237H34.3921C36.6169 29.97 38.5835 31.41 40.1692 33.1425C41.0419 34.065 41.7917 35.0775 42.4062 36.1463C42.8365 36.8663 43.2052 37.62 43.5125 38.385C43.5371 38.4525 43.5617 38.5087 43.5863 38.565C43.7952 39.1275 43.9796 39.7125 44.1394 40.2975C44.25 40.7137 44.336 41.1413 44.4098 41.5688C44.4344 41.7038 44.459 41.8275 44.4713 41.9625C44.5942 42.7387 44.6556 43.5375 44.6556 44.3475Z" fill="#FF6F00"/>
<path d="M42.1358 44.3475V44.46C42.1358 44.8425 42.0989 45.3263 42.0621 45.8438C42.0252 46.2263 41.9883 46.62 41.9515 46.9913C41.5581 47.07 41.1525 47.1375 40.7469 47.1713H40.7346C40.2675 47.2275 39.8127 47.25 39.3333 47.25H37.1823L36.7152 47.1263L34.2937 46.4513L31.8354 45.7763L26.1444 44.2125L23.686 43.5375C23.686 43.5375 22.6658 43.9088 21.2277 44.3475H21.2154C20.6623 44.5163 20.06 44.6963 19.4208 44.8763C18.6219 45.09 17.7737 45.3038 16.9379 45.4725C16.0775 45.6525 15.2294 45.7875 14.4673 45.8438C14.2337 45.8663 14.0002 45.8775 13.7912 45.8775C13.1029 45.5288 12.4392 45.1125 11.8369 44.6513C11.3083 44.2463 10.8167 43.8075 10.3619 43.3238C10.0177 42.9638 9.71041 42.5925 9.41541 42.1875C9.50145 41.6813 9.59978 41.1863 9.74728 40.7025C10.116 39.3638 10.6937 38.0813 11.4558 36.9113C11.8737 36.2475 12.3408 35.6063 12.8817 35.01C12.8939 34.9763 12.9308 34.9425 12.9677 34.92C12.9554 34.9088 12.9677 34.9088 12.9677 34.9088C13.1275 34.7175 13.2996 34.5375 13.4717 34.3688C13.4717 34.3575 13.4717 34.3575 13.4717 34.3575C13.9756 33.8625 14.4919 33.39 15.0573 32.9513C15.2539 32.805 15.4383 32.6588 15.6473 32.5125C15.6842 32.4788 15.721 32.4563 15.7702 32.4225C18.5358 30.4875 21.9898 29.3175 25.7142 29.3175C29.9425 29.3175 33.7898 30.7688 36.7029 33.1538C38.1042 34.3125 39.2964 35.6963 40.1937 37.2375C40.2675 37.35 40.3412 37.4738 40.4027 37.5975C40.5133 37.8 40.624 38.0138 40.7223 38.2388C41.1279 39.0488 41.4475 39.9038 41.6687 40.7813C41.6933 40.8713 41.7179 40.9613 41.7425 41.0513C41.8408 41.4675 41.9269 41.895 41.9883 42.3225C42.0867 42.9863 42.1358 43.6613 42.1358 44.3475Z" fill="#FF9800"/>
<path d="M39.6037 44.3475C39.6037 44.5725 39.5915 44.82 39.5792 45.0787C39.5546 45.495 39.5177 45.945 39.4562 46.4062C39.4317 46.6875 39.3825 46.9687 39.3333 47.25H32.5975L31.2946 47.0588L26.2058 46.3162L25.4806 46.215L23.8212 45.9675C23.096 45.9675 21.5227 46.26 19.8633 46.5412C18.9906 46.6875 18.1056 46.845 17.3067 46.9462C17.2083 46.9575 17.11 46.9687 17.024 46.98H17.0117C16.1512 46.8112 15.3154 46.5525 14.5287 46.215C14.2829 46.1138 14.0371 46.0012 13.7912 45.8775C13.1029 45.5287 12.4392 45.1125 11.8369 44.6512C11.8246 44.5162 11.8123 44.4037 11.8123 44.3475C11.8123 44.055 11.8246 43.7737 11.8492 43.4925C11.8983 42.7725 12.009 42.075 12.181 41.4C12.4515 40.3762 12.8448 39.3862 13.3733 38.475C13.4717 38.2837 13.5823 38.0925 13.7052 37.9125C13.7544 37.8225 13.8158 37.7437 13.865 37.6537C14.0862 37.3275 14.3321 37.0125 14.5779 36.6975C15.0942 36.0787 15.6719 35.4937 16.2865 34.965C16.2987 34.965 16.2987 34.965 16.2987 34.965C16.3479 34.92 16.3971 34.875 16.4462 34.8412C16.5077 34.7962 16.5569 34.74 16.6183 34.7062C16.8642 34.5037 17.11 34.3237 17.3681 34.155C17.3681 34.1437 17.3804 34.1437 17.3804 34.1437C19.7035 32.5575 22.5798 31.6237 25.7142 31.6237C28.1479 31.6237 30.4096 32.1862 32.3885 33.1762H32.4008C34.0971 34.0312 35.5721 35.19 36.7398 36.585C37.1946 37.125 37.6002 37.6987 37.9444 38.3062H37.9567C38.0181 38.4187 38.0796 38.5312 38.141 38.6437C38.5098 39.3075 38.8048 40.005 39.026 40.725H39.0383C39.0506 40.7812 39.0752 40.8375 39.0875 40.8937C39.235 41.3775 39.3579 41.8725 39.444 42.3787C39.4562 42.48 39.4685 42.5925 39.4808 42.6937C39.5669 43.2337 39.6037 43.785 39.6037 44.3475Z" fill="#FFC107"/>
<path d="M37.0839 44.2238C37.0839 44.4038 37.0839 44.595 37.0594 44.775V44.7863C37.0594 44.7975 37.0594 44.7975 37.0594 44.7975C37.0348 45.6075 36.9119 46.4063 36.7152 47.1263C36.7152 47.1713 36.7029 47.205 36.6783 47.25H30.9381L26.2058 46.3163L25.5789 46.1925L25.4806 46.215L20.2321 47.205L19.9985 47.25H19.6667C18.88 47.25 18.1056 47.1825 17.3558 47.0475C17.2452 47.025 17.1346 47.0025 17.0239 46.98H17.0117C16.1512 46.8113 15.3154 46.5525 14.5287 46.215C14.5042 46.0913 14.4796 45.9675 14.4673 45.8438C14.3812 45.36 14.3444 44.8538 14.3444 44.3475C14.3444 44.1563 14.3444 43.965 14.3567 43.7738C14.3935 43.1663 14.4919 42.57 14.6394 41.9963C14.7377 41.5688 14.8729 41.1525 15.0327 40.7588C15.1679 40.41 15.3277 40.0725 15.4998 39.7463C15.6473 39.465 15.8194 39.195 15.9914 38.925C16.1635 38.6663 16.3479 38.4188 16.5446 38.1713C17.0362 37.5525 17.6139 36.9788 18.2531 36.4725C18.6219 36.18 19.0275 35.8988 19.4454 35.6513C21.24 34.5713 23.391 33.9413 25.7142 33.9413C26.1689 33.9413 26.6114 33.9638 27.0417 34.02H27.0662C28.3814 34.155 29.6106 34.4925 30.7414 34.9988C30.7537 34.9988 30.7537 34.9988 30.7537 34.9988C32.536 35.7975 34.0479 37.0013 35.1542 38.4863C35.3385 38.7338 35.5229 39.0038 35.6827 39.2738C35.8179 39.4875 35.9408 39.7125 36.0514 39.9375C36.2235 40.2863 36.3833 40.6575 36.5185 41.0288H36.5308C36.666 41.445 36.7889 41.8613 36.875 42.3V42.3113C37.0102 42.93 37.0839 43.5713 37.0839 44.2238Z" fill="#FFD54F"/>
<path d="M34.5519 44.46V44.4937C34.5519 45.1575 34.4658 45.81 34.2937 46.4512C34.2323 46.7212 34.1462 46.9912 34.0356 47.25H28.529L25.7142 46.5412L22.8994 47.25H19.6667C18.88 47.25 18.1056 47.1825 17.3558 47.0475C17.3312 47.0137 17.319 46.98 17.3067 46.9462C17.1346 46.4625 16.9994 45.9787 16.9379 45.4725C16.8887 45.1462 16.8642 44.8087 16.8642 44.46C16.8642 44.325 16.8642 44.1787 16.8887 44.0437C16.901 43.515 16.9871 42.9975 17.1346 42.5025C17.2083 42.165 17.319 41.8387 17.4665 41.5237C17.5156 41.3662 17.5894 41.22 17.6754 41.0737C17.8598 40.6912 18.081 40.32 18.3269 39.96C18.5973 39.6 18.8923 39.2625 19.2242 38.9475C19.6175 38.5425 20.06 38.1712 20.564 37.8675C21.4244 37.2937 22.4077 36.8662 23.4771 36.63C24.19 36.45 24.9398 36.36 25.7142 36.36C28.1725 36.36 30.3727 37.26 31.9706 38.7112C32.0321 38.7675 32.1058 38.835 32.1673 38.9137H32.1796C32.3517 39.0825 32.5115 39.2512 32.6712 39.4425C33.126 39.9712 33.5071 40.545 33.8021 41.175C33.9496 41.4675 34.0725 41.7712 34.1708 42.0862C34.1831 42.1312 34.1954 42.165 34.2077 42.21C34.3798 42.7612 34.4904 43.335 34.515 43.9312C34.5396 44.1 34.5519 44.28 34.5519 44.46Z" fill="#FFE082"/>
<path d="M32.0321 44.46C32.0321 44.9212 31.9706 45.36 31.8354 45.7762C31.7125 46.2262 31.5281 46.6537 31.2946 47.0587C31.2577 47.1262 31.1717 47.25 31.1717 47.25H20.2567C20.2444 47.2387 20.2321 47.2162 20.2321 47.205C20.0846 46.9912 19.9617 46.7775 19.8633 46.5412C19.6175 46.0237 19.47 45.4612 19.4208 44.8762C19.3962 44.7412 19.3962 44.595 19.3962 44.46C19.3962 44.3925 19.3962 44.3137 19.4085 44.2462C19.4208 43.7512 19.4946 43.2787 19.6421 42.84C19.765 42.435 19.9248 42.0637 20.1337 41.7037C20.1337 41.7037 20.146 41.6925 20.146 41.6812C20.2935 41.445 20.4533 41.2087 20.6377 40.9837C21.24 40.2412 22.0389 39.6337 22.9608 39.24C22.9731 39.24 22.9731 39.24 22.9731 39.24C23.2681 39.105 23.5754 38.9925 23.895 38.9137C23.895 38.9137 23.895 38.9137 23.9073 38.9137C24.4727 38.7562 25.0873 38.6775 25.7142 38.6775C26.4394 38.6775 27.14 38.7787 27.7792 38.9925C28.0127 39.0487 28.2339 39.1387 28.4552 39.24C28.4552 39.24 28.4552 39.24 28.4675 39.24C29.5246 39.7012 30.4219 40.4212 31.0364 41.3212C31.1594 41.49 31.27 41.67 31.3683 41.8612C31.4175 41.94 31.4667 42.03 31.5035 42.1087C31.7862 42.6937 31.9583 43.335 32.0075 44.01C32.0198 44.0662 32.0198 44.1225 32.0198 44.19C32.0321 44.28 32.0321 44.37 32.0321 44.46Z" fill="#FFECB3"/>
<path d="M36.875 12.375H22.125C17.3313 12.375 13.5208 15.8625 13.5208 20.25V33.75C13.5208 38.1375 17.3313 41.625 22.125 41.625H36.875C41.6688 41.625 45.4792 38.1375 45.4792 33.75V20.25C45.4792 15.8625 41.6688 12.375 36.875 12.375Z" stroke="white" stroke-width="2" stroke-miterlimit="10" stroke-linecap="round" stroke-linejoin="round"/>
<path d="M38.1042 19.125C38.783 19.125 39.3333 18.6213 39.3333 18C39.3333 17.3787 38.783 16.875 38.1042 16.875C37.4253 16.875 36.875 17.3787 36.875 18C36.875 18.6213 37.4253 19.125 38.1042 19.125Z" fill="white"/>
<path d="M29.5 33.75C33.5731 33.75 36.875 30.7279 36.875 27C36.875 23.2721 33.5731 20.25 29.5 20.25C25.4269 20.25 22.125 23.2721 22.125 27C22.125 30.7279 25.4269 33.75 29.5 33.75Z" stroke="white" stroke-width="2" stroke-miterlimit="10" stroke-linecap="round" stroke-linejoin="round"/>
</svg>
