<svg width="143" height="158" viewBox="0 0 143 158" fill="none" xmlns="http://www.w3.org/2000/svg">
<path d="M131.331 98.0587C130.785 95.3299 128.545 92.1469 124.026 92.1469C123.102 92.1469 122.092 92.2753 120.942 92.5386C118.833 93.0192 117.037 93.2529 115.455 93.3319C127.768 70.1586 135.761 37.9694 127.845 26.7941C117.415 12.0705 103.374 9.87168 95.9351 9.87168L95.235 9.87497C92.4674 9.92435 89.5955 10.2996 86.7057 10.9908L76.0313 13.5386C74.5775 13.3378 73.0968 13.1963 71.5536 13.1666H71.4643H71.4166L70.9638 13.1634C66.2179 13.1634 61.8892 14.2759 58.0312 16.3661L54.3043 14.7434C49.1801 12.5116 41.47 9.85522 33.8433 9.85522C33.4143 9.85522 32.9883 9.8651 32.5593 9.88156C25.0459 10.1811 18.593 13.3312 13.8948 18.9896C8.03183 26.0535 5.3625 36.3861 5.96727 49.7041C5.99706 50.3921 13.2901 118.5 33.9625 118.5H34.037L34.2276 118.497C36.9119 118.424 39.471 117.233 41.8632 114.952C43.6895 116.466 46.052 117.361 48.2536 117.717C49.7074 118.095 52.3231 118.632 55.4572 118.632C59.2824 118.632 62.7323 117.766 65.7055 116.202C65.7025 119.099 65.6876 122.766 65.6579 127.453L65.6549 127.7L65.6698 127.947C65.9587 132.618 66.6886 136.828 67.788 140.13C70.9191 149.54 76.3262 154.725 83.0145 154.725C83.2915 154.725 83.5746 154.715 83.8606 154.695C89.3601 154.32 94.9341 150.906 98.7683 145.571C102.918 139.794 103.878 133.698 104.247 129.027L104.271 128.74V128.451V115.024L104.578 115.057L105.877 115.182L106.002 115.195L106.127 115.202C106.496 115.221 106.878 115.228 107.262 115.228C111.752 115.228 117.278 113.941 121.014 112.022C124.586 110.192 132.749 105.162 131.331 98.0587Z" fill="white"/>
<path d="M98.3125 111.917C98.3125 111.242 98.3483 110.679 98.3661 110.057C98.3363 109.231 98.3125 108.625 98.3125 108.625C98.3125 108.625 98.3483 108.595 98.4078 108.553C98.8517 99.754 101.047 96.3635 103.398 94.4313C103.07 93.9277 102.692 93.3846 102.337 92.8678C101.345 91.4293 100.109 89.6452 98.7862 87.3575L98.5419 86.8375C98.3423 86.2976 97.8597 85.3661 97.246 84.1416C93.7216 77.0974 86.3869 62.4429 91.4068 53.1867C93.6054 49.1314 97.7286 46.7943 103.684 46.2183C101.25 38.5717 92.1307 20.1285 71.4553 19.75C71.4494 19.75 71.4434 19.75 71.4374 19.75C53.4403 19.4274 47.5267 37.4987 45.6021 48.2953C48.2536 47.0544 51.2804 46.3006 54.051 46.3006C54.0927 46.3006 54.1374 46.3006 54.1791 46.3006C61.0014 46.3565 65.6936 50.3789 67.0581 57.3408C68.0561 62.4495 68.5357 66.9196 68.5238 71.0111C68.494 79.9612 66.8614 84.6682 65.4195 88.8223L64.9607 90.1653C64.5913 91.2647 64.2011 92.2885 63.8316 93.2496C63.4563 94.2305 63.1256 95.1028 62.8843 95.8895C64.3262 96.2516 65.4583 96.7618 66.2358 97.1404L66.6857 97.3576C66.8257 97.4234 66.9657 97.4992 67.0938 97.5847C69.6202 99.2832 71.1932 101.894 71.5298 104.935C71.7115 106.574 71.6817 117.749 71.6192 127.499C71.8784 131.729 72.5278 135.281 73.3858 137.855C74.6043 141.522 77.649 148.523 83.4971 148.122C87.5786 147.842 91.5021 145.097 94.1059 141.476C96.9004 137.588 97.9312 133.289 98.3185 128.447V111.917H98.3125Z" fill="#0277BD"/>
<path d="M45.0271 95.1851C40.2217 89.6452 37.8801 82.1929 38.759 75.2508C39.608 68.5522 39.1284 61.9952 38.8692 58.4699C38.7828 57.2947 38.7262 56.4191 38.7292 55.9353C38.7292 55.9089 38.7351 55.8859 38.7381 55.8596C38.7381 55.8464 38.7322 55.8365 38.7322 55.8233C39.0926 45.8792 42.5634 30.1911 52.1175 20.8659C47.4641 18.8415 39.8851 16.1719 32.7708 16.4583C21.6228 16.906 10.8323 25.4248 11.9167 49.375C12.3248 58.3612 21.5155 112.256 34.0817 111.917C35.8781 111.867 37.7431 110.593 39.6587 108.046C42.6885 104.02 45.6319 100.369 47.7263 97.8283C46.7878 97.0416 45.8822 96.1726 45.0271 95.1851Z" fill="#0277BD"/>
<path d="M110.298 48.4896C110.342 48.9965 110.304 49.431 110.232 49.8326C110.324 52.8609 110.03 55.8004 109.729 58.6444C109.508 60.7379 109.282 62.9005 109.219 65.0697C109.157 67.1928 109.428 69.2896 109.714 71.5082C110.384 76.7024 111.081 82.5649 107.435 89.405C108.105 90.3793 108.695 91.2845 109.166 92.1601C122.9 67.5549 128.435 38.3051 123.153 30.8495C115.16 19.5657 104.095 16.3004 95.3303 16.4584C92.5865 16.5077 90.093 16.9159 87.9629 17.4261C103.085 25.5236 109.821 42.8773 110.298 48.4896Z" fill="#0277BD"/>
<path d="M122.146 98.9837C114.206 100.794 110.387 99.8297 108.534 98.569C108.236 98.806 107.938 99.0068 107.661 99.1944C106.553 99.935 104.798 101.113 104.369 108.352C104.616 108.404 104.834 108.434 105.102 108.497L106.398 108.625C110.33 108.823 115.481 107.605 118.502 106.054C125.012 102.716 128.56 97.5222 122.146 98.9837Z" fill="#0277BD"/>
<path d="M65.6102 105.725C65.5 104.744 65.0203 103.951 64.1444 103.316L63.8227 103.161C62.7472 102.637 61.5287 102.042 59.5833 102.042H59.5714C59.1931 102.075 58.8177 102.104 58.4393 102.104C58.2844 102.104 58.1325 102.081 57.9776 102.075C56.5654 103.276 54.5575 104.204 49.5882 105.333C40.7103 107.832 45.9507 110.781 49.3558 111.239C52.6508 112.15 60.483 113.26 65.6847 108.576C65.6698 107.101 65.6459 106.087 65.6102 105.725Z" fill="#0277BD"/>
<path d="M61.6121 60.8991C60.7422 61.8932 59.3688 62.7622 57.8524 62.4923C55.3857 62.0512 53.4939 58.7629 53.631 57.5285C53.762 56.2974 55.8683 55.6555 58.3321 56.0966C59.1871 56.2513 59.9647 56.5179 60.6201 56.8471C59.6668 54.5824 57.9418 53.2756 55.3112 52.9564C50.6488 52.3836 45.7004 55.0762 44.7054 56.5673C44.7262 56.9294 44.765 57.3935 44.8037 57.9399C45.0808 61.7155 45.5932 68.7498 44.6547 76.1659C44.0351 81.054 45.8255 86.5972 49.3231 90.6328C51.5783 93.2332 54.2119 94.879 56.8097 95.3662C57.1404 93.7928 57.7303 92.2589 58.338 90.6756C58.6747 89.8033 59.0322 88.875 59.3688 87.8711L59.8515 86.4655C61.1712 82.6636 62.5327 78.7301 62.5595 70.9848C62.5714 68.0059 62.2408 64.6056 61.6121 60.8991Z" fill="#0277BD"/>
<path d="M103.815 72.4397C103.505 70.0401 103.186 67.5549 103.264 64.859C103.332 62.4166 103.577 60.1124 103.812 57.8839C103.997 56.1295 104.14 54.4442 104.223 52.7819C100.383 53.1341 97.8328 54.3586 96.6233 56.429C97.1238 56.2414 97.6899 56.0933 98.3155 56.0044C100.973 55.6226 102.912 56.4685 103.136 58.1012C103.3 59.2961 102.382 60.4218 101.98 60.853C101.155 61.7385 100.115 62.3079 99.0573 62.4594C98.8666 62.4857 98.673 62.4989 98.4853 62.4989C97.4336 62.4989 96.4297 62.1006 95.6581 61.5114C95.9917 68.0058 100.326 76.6925 102.459 80.9552C102.915 81.867 103.267 82.5945 103.559 83.2199C104.73 79.5365 104.298 76.179 103.815 72.4397Z" fill="#0277BD"/>
</svg>
