<svg width="163" height="158" viewBox="0 0 163 158" fill="none" xmlns="http://www.w3.org/2000/svg">
<path d="M81.6596 16.4583C76.3791 16.4748 72.7184 16.9258 68.2936 17.6664C55.2264 19.8718 52.846 24.5032 52.846 33.0385V46.0833H83.4085V52.6667H51.6846H36.9127C27.9613 52.6667 20.1271 56.7549 17.6447 66.5542C14.8398 77.8018 14.7141 84.846 17.6447 96.5907C19.869 105.35 24.7692 111.917 33.724 111.917H46.0577V95.116C46.0577 85.3529 55.1789 75.7083 65.6313 75.7083H90.2035C98.7712 75.7083 107.183 69.5793 107.183 61.3007V33.0385C107.183 25.0101 101.209 19.0061 92.8591 17.6598C93.0662 17.64 86.896 16.4386 81.6596 16.4583ZM64.7348 29.625C67.5227 29.625 69.8285 31.8535 69.8285 34.5691C69.8285 37.311 67.5227 39.5 64.7348 39.5C61.8925 39.5 59.641 37.3143 59.641 34.5691C59.641 31.8633 61.8925 29.625 64.7348 29.625Z" fill="url(#paint0_linear_3_56)"/>
<path d="M78.369 141.542C83.6495 141.525 87.3103 141.074 91.735 140.334C104.802 138.128 107.183 133.497 107.183 124.962V111.917H76.6202V105.333H108.347H123.119C132.071 105.333 139.905 101.245 142.387 91.4458C145.192 80.1982 145.318 73.154 142.387 61.4093C140.16 52.6502 135.259 46.0833 126.305 46.0833H113.971V62.884C113.971 72.6471 104.85 82.2917 94.3974 82.2917H69.8251C61.2574 82.2917 52.8459 88.4208 52.8459 96.6993V124.962C52.8459 132.99 58.8192 138.994 67.1696 140.34C66.9624 140.36 73.1327 141.561 78.369 141.542ZM95.2973 128.375C92.5093 128.375 90.2035 126.147 90.2035 123.431C90.2035 120.689 92.5093 118.5 95.2973 118.5C98.1396 118.5 100.391 120.686 100.391 123.431C100.391 126.137 98.1362 128.375 95.2973 128.375Z" fill="url(#paint1_linear_3_56)"/>
<defs>
<linearGradient id="paint0_linear_3_56" x1="35.5126" y1="42.6992" x2="87.9643" y2="88.104" gradientUnits="userSpaceOnUse">
<stop stop-color="#26ABE7"/>
<stop offset="1" stop-color="#086DBF"/>
</linearGradient>
<linearGradient id="paint1_linear_3_56" x1="119.989" y1="124.789" x2="81.5188" y2="68.1095" gradientUnits="userSpaceOnUse">
<stop stop-color="#FEB705"/>
<stop offset="1" stop-color="#FFDA1C"/>
</linearGradient>
</defs>
</svg>
