<svg width="59" height="54" viewBox="0 0 59 54" fill="none" xmlns="http://www.w3.org/2000/svg">
<path d="M29.5 5.39999C16.4669 5.39999 5.89999 15.0714 5.89999 27C5.89999 37.1214 13.5149 45.5904 23.7809 47.934C23.6708 47.6424 23.6 47.304 23.6 46.8846V43.1928C22.6422 43.1928 21.0374 43.1928 20.6343 43.1928C19.0196 43.1928 17.584 42.5574 16.8878 41.3766C16.1149 40.0644 15.9811 38.0574 14.0656 36.8298C13.4972 36.4212 13.9299 35.955 14.5848 36.018C15.7943 36.3312 16.7973 37.0908 17.7413 38.2176C18.6814 39.3462 19.1239 39.6018 20.8801 39.6018C21.7317 39.6018 23.0061 39.5568 24.2057 39.384C24.8508 37.8846 25.9659 36.504 27.3288 35.8524C19.47 35.1126 15.7196 31.5342 15.7196 26.676C15.7196 24.5844 16.6931 22.5612 18.347 20.8566C17.8042 19.1646 17.1218 15.714 18.5555 14.4C22.0916 14.4 24.2293 16.4988 24.7426 17.0658C26.5048 16.5132 28.44 16.2 30.4735 16.2C32.511 16.2 34.454 16.5132 36.2201 17.0694C36.7275 16.506 38.8672 14.4 42.4112 14.4C43.8508 15.7158 43.1605 19.1808 42.6118 20.8692C44.2559 22.5702 45.2235 24.588 45.2235 26.676C45.2235 31.5306 41.479 35.1072 33.632 35.8506C35.7914 36.882 37.3667 39.78 37.3667 41.9634V46.8846C37.3667 47.0718 37.3214 47.2068 37.2978 47.367C46.494 44.4168 53.1 36.4248 53.1 27C53.1 15.0714 42.5331 5.39999 29.5 5.39999Z" fill="white"/>
</svg>
