<svg width="143" height="158" viewBox="0 0 143 158" fill="none" xmlns="http://www.w3.org/2000/svg">
<path fill-rule="evenodd" clip-rule="evenodd" d="M68.2319 10.8164C70.2547 9.56232 72.7453 9.56232 74.7652 10.8164C84.7603 17.0147 114.838 35.6718 124.836 41.87C126.859 43.1209 128.104 45.4382 128.104 47.9464C128.104 60.3429 128.104 97.6539 128.104 110.05C128.104 112.559 126.859 114.876 124.836 116.13C114.841 122.328 84.7633 140.985 74.7652 147.184C72.7423 148.438 70.2517 148.438 68.2319 147.184C58.2368 140.985 28.1591 122.328 18.161 116.13C16.1411 114.876 14.8958 112.562 14.8958 110.054C14.8958 97.6572 14.8958 60.3462 14.8958 47.9497C14.8958 45.4415 16.1411 43.1242 18.164 41.87C28.1561 35.6718 58.2397 17.0147 68.2319 10.8164Z" fill="#00549D"/>
<path fill-rule="evenodd" clip-rule="evenodd" d="M15.8015 113.247C15.0091 112.075 14.8958 110.962 14.8958 109.464C14.8958 97.1404 14.8958 60.0433 14.8958 47.716C14.8958 45.2209 16.1382 42.9168 18.1551 41.6725C28.1144 35.5105 58.0908 16.962 68.0501 10.7967C70.067 9.54914 72.7989 9.57547 74.8158 10.823C84.7752 16.985 114.65 35.3756 124.61 41.5376C125.414 42.0379 126.028 42.6403 126.576 43.4336L15.8015 113.247Z" fill="#0086D4"/>
<path fill-rule="evenodd" clip-rule="evenodd" d="M71.5 32.9167C94.52 32.9167 113.208 53.5653 113.208 79C113.208 104.435 94.52 125.083 71.5 125.083C48.48 125.083 29.7917 104.435 29.7917 79C29.7917 53.5653 48.48 32.9167 71.5 32.9167ZM71.5 55.9584C83.0085 55.9584 92.3542 66.281 92.3542 79C92.3542 91.7157 83.0085 102.042 71.5 102.042C59.9915 102.042 50.6459 91.7157 50.6459 79C50.6459 66.281 59.9885 55.9584 71.5 55.9584Z" fill="white"/>
<path fill-rule="evenodd" clip-rule="evenodd" d="M126.57 43.4665C128.107 45.0564 128.077 47.4527 128.077 49.3388C128.077 61.8307 127.982 97.361 128.104 109.853C128.116 111.156 127.726 112.529 127.142 113.563L70.2875 79L126.57 43.4665Z" fill="#0075C0"/>
<path d="M98.3125 69.125H92.3542V88.875H98.3125V69.125Z" fill="white"/>
<path d="M119.167 69.125H113.208V88.875H119.167V69.125Z" fill="white"/>
<path d="M104.271 75.7084H86.3958V82.2917H104.271V75.7084Z" fill="white"/>
<path d="M125.125 75.7084H107.25V82.2917H125.125V75.7084Z" fill="white"/>
</svg>
